<svg xmlns="http://www.w3.org/2000/svg" data-name="Layer 1" width="950.5" height="621.2283325195312" style=""><rect id="backgroundrect" width="100%" height="100%" x="0" y="0" fill="none" stroke="none"/><g class="currentLayer" style=""><title>Layer 1</title><ellipse cx="129" cy="605.7283325195312" rx="129" ry="15" fill="#791a3d" id="svg_1" class="" fill-opacity="1"/><ellipse cx="821.5" cy="606.2283325195312" rx="129" ry="15" fill="#791a3d" id="svg_2" class="" fill-opacity="1"/><path d="M793.88237,333.1906562597656 H140.42081000000002 a6.92409,6.92409 0 0 1 -6.916,-6.91594 V6.915946259765633 a6.92409,6.92409 0 0 1 6.916,-6.916 H793.88237 a6.92409,6.92409 0 0 1 6.91594,6.916 V326.2747162597656 A6.92408,6.92408 0 0 1 793.88237,333.1906562597656 zM140.42081000000002,2.7663762597656216 a4.1541,4.1541 0 0 0 -4.14957,4.14957 V326.2747162597656 a4.1541,4.1541 0 0 0 4.14957,4.14956 H793.88237 a4.15411,4.15411 0 0 0 4.14957,-4.14956 V6.915946259765633 a4.15411,4.15411 0 0 0 -4.14957,-4.14957 z" fill="#791a3d" id="svg_3" class="" fill-opacity="1"/><circle cx="444.167724609375" cy="128.0386962890625" r="10.725810050964355" fill="#3f3d56" id="svg_4"/><circle cx="444.167724609375" cy="128.0386962890625" r="6.89516019821167" fill="#791a3d" id="svg_5" class="" fill-opacity="1"/><circle cx="490.1354675292969" cy="128.0386962890625" r="10.725810050964355" fill="#3f3d56" id="svg_6"/><circle cx="490.1354675292969" cy="128.0386962890625" r="6.89516019821167" fill="#791a3d" id="svg_7"/><path d="M442.96128999999996,128.8048262597656 a20.63132,20.63132 0 0 0 -20.608,18.69534 l-2.14464,21.98095 a18.78988,18.78988 0 0 0 18.701,20.614 h56.48406 a18.78986,18.78986 0 0 0 18.70095,-20.614 L511.94993999999997,147.50016625976565 a20.63132,20.63132 0 0 0 -20.608,-18.69534 z" fill="#3f3d56" id="svg_8" class="" fill-opacity="1"/><path d="M472.87489000000005,159.8824762597656 a10.00833,10.00833 0 0 1 13.9803,-2.06658 a10.00882,10.00882 0 1 0 -13.9803,2.06658 z" fill="#fff" id="svg_9"/><path d="M449.52185,161.81392625976565 a10.00836,10.00836 0 0 1 13.9803,-2.06658 a10.00882,10.00882 0 1 0 -13.9803,2.06658 z" fill="#fff" id="svg_10"/><circle cx="456.14422607421875" cy="151.81396484375" r="3.6873199939727783" fill="#3f3d56" id="svg_11" class="" fill-opacity="1"/><circle cx="480.0240478515625" cy="149.0045623779297" r="3.6873199939727783" fill="#3f3d56" id="svg_12"/><circle cx="467.389892578125" cy="164.81289672851562" r="3.8306500911712646" fill="#791a3d" id="svg_13"/><path d="M452.10172,170.9419162597656 a8.43909,8.43909 0 0 0 8.393,7.66129 h15.323 a8.43837,8.43837 0 0 0 8.39225,-7.66129 z" fill="#fff" id="svg_14"/><path d="M229.89352000000002,139.1475662597656 a10.72581,10.72581 0 1 1 -21.45161,0 c0,-5.9237 4.80211,-30.64516 10.72581,-30.64516 S229.89352000000002,133.2238662597656 229.89352000000002,139.1475662597656 z" fill="#3f3d56" id="svg_15" class="" fill-opacity="1"/><path d="M226.06288,139.1475662597656 a6.89516,6.89516 0 0 1 -13.79032,0 c0,-3.80809 3.08707,-26.81452 6.89516,-26.81452 S226.06288,135.3394762597656 226.06288,139.1475662597656 z" fill="#791a3d" id="svg_16" class="" fill-opacity="1"/><path d="M254.40965,139.1475662597656 a10.72581,10.72581 0 1 0 21.45162,0 c0,-5.9237 -4.80211,-32.94355 -10.72581,-32.94355 S254.40965,133.2238662597656 254.40965,139.1475662597656 z" fill="#3f3d56" id="svg_17" class="" fill-opacity="1"/><path d="M258.2403,139.1475662597656 a6.89516,6.89516 0 0 0 13.79032,0 c0,-3.80809 -3.08707,-29.1129 -6.89516,-29.1129 S258.2403,135.3394762597656 258.2403,139.1475662597656 z" fill="#791a3d" id="svg_18" class="" fill-opacity="1"/><path d="M217.96129000000002,139.91369625976563 a20.63132,20.63132 0 0 0 -20.608,18.69534 l-2.14464,21.981 a18.78988,18.78988 0 0 0 18.701,20.614 h56.48406 a18.78986,18.78986 0 0 0 18.70095,-20.614 l-2.14463,-21.981 a20.63132,20.63132 0 0 0 -20.60805,-18.69534 z" fill="#3f3d56" id="svg_19" class="" fill-opacity="1"/><path d="M247.87489,170.99134625976563 a10.00833,10.00833 0 0 1 13.9803,-2.06658 a10.00882,10.00882 0 1 0 -13.9803,2.06658 z" fill="#fff" id="svg_20"/><path d="M224.52184999999997,172.92280625976565 a10.00835,10.00835 0 0 1 13.9803,-2.06659 a10.00881,10.00881 0 1 0 -13.9803,2.06659 z" fill="#fff" id="svg_21"/><circle cx="230.4143155808124" cy="167.5920118684444" r="5.147173881530762" fill="#3f3d56" id="svg_22" class="" fill-opacity="1"/><circle cx="254.69528207428266" cy="165.91371617056575" r="4.782210700767877" fill="#3f3d56" id="svg_23" class="" fill-opacity="1"/><circle cx="242.38987731933594" cy="175.9217529296875" r="3.8306500911712646" fill="#791a3d" id="svg_24" class="" fill-opacity="1"/><path d="M250.40231,178.71443625976565 c1.31041,-0.6820000000000002 2.80377,-0.22600000000000003 4.086,0.30021000000000003 c1.40323,0.5758400000000001 2.7641400000000003,1.2288000000000001 4.21034,1.6982300000000001 a17.09506,17.09506 0 0 0 8.41318,0.7325400000000001 c5.10278,-0.9540700000000001 9.38433,-5.51487 8.23779,-10.92377 c-0.30655000000000004,-1.4461600000000001 -2.52262,-0.8341700000000001 -2.21629,0.6110000000000001 a6.46711,6.46711 0 0 1 -2.05964,5.93938 a9.73141,9.73141 0 0 1 -6.7523800000000005,2.33026 a20.0732,20.0732 0 0 1 -7.84056,-2.00857 c-2.34061,-1.0364 -4.79608,-1.935 -7.23847,-0.6638700000000002 c-1.31253,0.6831200000000002 -0.15170000000000003,2.6673 1.1600000000000001,1.9845899999999999 z" fill="#fff" id="svg_25"/><path d="M235.827,176.72984625976562 c-2.38007,-1.23874 -4.7882,-0.41606000000000004 -7.081,0.5938000000000001 a20.52985,20.52985 0 0 1 -7.998,2.07864 a9.775,9.775 0 0 1 -6.64519,-2.23338 a6.48931,6.48931 0 0 1 -2.16683,-6.03626 c0.30584000000000006,-1.44279 -1.9092500000000001,-2.05947 -2.2162800000000002,-0.6110000000000001 c-1.14652,5.40875 3.135,9.9697 8.23778,10.92377 a17.062,17.062 0 0 0 8.41319,-0.7325400000000001 c1.44577,-0.47156000000000003 2.807,-1.12179 4.21034,-1.6982300000000001 c1.28056,-0.526 2.77644,-0.98178 4.086,-0.30021000000000003 c1.31047,0.6820500000000002 2.474,-1.30073 1.1600000000000001,-1.9845899999999999 z" fill="#fff" id="svg_26"/><ellipse cx="243.30078125" cy="186.26449584960938" rx="6.129030227661133" ry="3.0645198822021484" fill="#fff" id="svg_27"/><circle cx="653.4620971679688" cy="137.32493591308594" r="21.636869430541992" fill="#3f3d56" id="svg_28"/><circle cx="653.4620971679688" cy="137.32493591308594" r="13.909420013427734" fill="#791a3d" id="svg_29"/><circle cx="730.8411254882812" cy="137.32493591308594" r="21.636869430541992" fill="#3f3d56" id="svg_30"/><circle cx="730.8411254882812" cy="137.32493591308594" r="13.909420013427734" fill="#791a3d" id="svg_31" class="" fill-opacity="1"/><path d="M668.34435,130.42977625976562 q-0.502,0 -0.9983599999999999,0.023390000000000008 c-12.4675,0.5852900000000001 -21.08618,12.78889 -18.04794,24.89468 l0.44011000000000006,1.7536300000000002 c1.56349,6.22968 2.62749,12.56382 3.68105,18.89971 a18.78407,18.78407 0 0 0 18.5347,15.71892 h41.16148 a18.78608,18.78608 0 0 0 18.66986,-16.68618 a130.22515,130.22515 0 0 1 3.30816,-16.985219999999998 l0.6778500000000002,-2.70085 c3.03824,-12.1058 -5.58044,-24.3094 -18.04794,-24.89469 q-0.49629,-0.023310000000000008 -0.99837,-0.023390000000000008 z" fill="#3f3d56" id="svg_32"/><path d="M698.258,161.5074362597656 a10.00836,10.00836 0 0 1 13.98031,-2.06659 a10.00881,10.00881 0 1 0 -13.98031,2.06659 z" fill="#fff" id="svg_33"/><path d="M674.90491,163.43888625976564 a10.00834,10.00834 0 0 1 13.98031,-2.06658 a10.00882,10.00882 0 1 0 -13.98031,2.06658 z" fill="#fff" id="svg_34"/><circle cx="677.6966552734375" cy="153.4389190673828" r="3.6873199939727783" fill="#3f3d56" id="svg_35"/><circle cx="701.5764770507812" cy="152.1617889404297" r="3.6873199939727783" fill="#3f3d56" id="svg_36"/><path d="M696.60359,166.43784625976565 a3.8306500000000003,3.8306500000000003 0 1 1 -6.75206,-2.47786 c0.7026500000000001,-0.8276100000000001 1.51241,1.7117300000000002 2.68312,1.7117300000000002 c1.21234,0 2.53143,-2.50133 3.23334,-1.6223200000000002 A3.81453,3.81453 0 0 1 696.60359,166.43784625976565 z" fill="#791a3d" id="svg_37"/><path d="M684.34553,171.80075h18.3871a0,0,0,0,1,0,0v0a9.19354,9.19354,0,0,1-9.19354,9.19354h0a9.19354,9.19354,0,0,1-9.19354-9.19354v0A0,0,0,0,1,684.34553,171.80075Z" fill="#fff" id="svg_38"/><ellipse cx="689.8532104492188" cy="126.59912872314453" rx="4.97983980178833" ry="8.427419662475586" fill="#791a3d" id="svg_39"/><ellipse cx="829.0258178710938" cy="915.7874755859375" rx="8.427419662475586" ry="4.97983980178833" transform="rotate(-55.001731872558594 6.761360168457121,648.2702636718749) " fill="#791a3d" id="svg_40"/><path d="M306.88237,230.29934625976563 H177.42081000000002 a6.92409,6.92409 0 0 1 -6.916,-6.91594 V84.02462625976563 a6.92409,6.92409 0 0 1 6.916,-6.91594 H306.88237 a6.92408,6.92408 0 0 1 6.91594,6.91594 V223.38340625976565 A6.92408,6.92408 0 0 1 306.88237,230.29934625976563 zM177.42081000000002,79.87506625976562 a4.1541,4.1541 0 0 0 -4.14957,4.14956 V223.38340625976565 a4.1541,4.1541 0 0 0 4.14957,4.14956 H306.88237 a4.15411,4.15411 0 0 0 4.14957,-4.14956 V84.02462625976563 a4.15411,4.15411 0 0 0 -4.14957,-4.14956 z" fill="#791a3d" id="svg_41" class="" fill-opacity="1"/><path d="M531.88237,230.29934625976563 H402.42080999999996 a6.92409,6.92409 0 0 1 -6.9159500000000005,-6.91594 V84.02462625976563 a6.92409,6.92409 0 0 1 6.9159500000000005,-6.91594 H531.88237 a6.92408,6.92408 0 0 1 6.91594,6.91594 V223.38340625976565 A6.92408,6.92408 0 0 1 531.88237,230.29934625976563 zM402.42080999999996,79.87506625976562 a4.1541,4.1541 0 0 0 -4.14957,4.14956 V223.38340625976565 a4.1541,4.1541 0 0 0 4.14957,4.14956 H531.88237 a4.15411,4.15411 0 0 0 4.14957,-4.14956 V84.02462625976563 a4.15411,4.15411 0 0 0 -4.14957,-4.14956 z" fill="#791a3d" id="svg_42" class="" fill-opacity="1"/><path d="M756.88237,230.29934625976563 H627.42081 a6.92409,6.92409 0 0 1 -6.9159500000000005,-6.91594 V84.02462625976563 a6.92409,6.92409 0 0 1 6.9159500000000005,-6.91594 H756.88237 a6.92408,6.92408 0 0 1 6.91594,6.91594 V223.38340625976565 A6.92408,6.92408 0 0 1 756.88237,230.29934625976563 zM627.42081,79.87506625976562 a4.1541,4.1541 0 0 0 -4.14957,4.14956 V223.38340625976565 a4.1541,4.1541 0 0 0 4.14957,4.14956 H756.88237 a4.15411,4.15411 0 0 0 4.14957,-4.14956 V84.02462625976563 a4.15411,4.15411 0 0 0 -4.14957,-4.14956 z" fill="#791a3d" id="svg_43" class="" fill-opacity="1"/><path d="M660.15159,246.08196625976564 a1.00068,1.00068 0 0 0 -1,1 v8 a1.00067,1.00067 0 0 0 1,1 h64 a1.00067,1.00067 0 0 0 1,-1 v-8 a1.00068,1.00068 0 0 0 -1,-1 z" fill="#3f3d56" id="svg_44"/><path d="M435.15159000000006,246.08196625976564 a1.00068,1.00068 0 0 0 -1,1 v8 a1.00067,1.00067 0 0 0 1,1 h64 a1.00067,1.00067 0 0 0 1,-1 v-8 a1.00068,1.00068 0 0 0 -1,-1 z" fill="#791a3d" id="svg_45"/><path d="M210.15159,246.08196625976564 a1.00068,1.00068 0 0 0 -1,1 v8 a1.00067,1.00067 0 0 0 1,1 h64 a1.00067,1.00067 0 0 0 1,-1 v-8 a1.00068,1.00068 0 0 0 -1,-1 z" fill="#fcd02f" id="svg_46" class="" fill-opacity="1"/><path d="M177,377.72833625976557 l-3,13 s1,30 -7,27 s-6,-29 -6,-29 l7,-13 z" fill="#ffb8b8" id="svg_47"/><circle cx="132.5" cy="215.22833251953125" r="20" fill="#ffb8b8" id="svg_48"/><path d="M117,220.72833625976563 l-2,29 l25,3 s0,-24 2,-27 S117,220.72833625976563 117,220.72833625976563 z" fill="#ffb8b8" id="svg_49"/><path d="M172.44191,258.4943062597656 L140.04719999999998,244.8092162597656 s-15.47946,-11.9226 -24.54586,-3.08988 l-4.069,5.82834 S75.44458,261.5791662597656 75.45419999999999,272.5791662597656 l14.0481,54.98773 s-7.97287,31.007 4.02887,32.99649 l65.00522,5.94314 s8.99038,-11.00787 0.9781299999999999,-25.00087 l2.97114,-33.00261 z" fill="#791a3d" id="svg_50" class="" fill-opacity="1"/><path d="M150.44279999999998,259.5135562597656 l21.99911,-1.01925 s7.00175,1.9938799999999999 12.01837,20.9895 s6.04374,49.99473 6.04374,49.99473 l-11.951,56.01048 L163.55126,383.50216625976566 l5.95276,-54.00523 L159.47253999999998,293.50566625976563 z" fill="#791a3d" id="svg_51" class="" fill-opacity="1"/><path d="M87.44807,265.5686662597656 l-10.8435,3.38753 s-9.14162,13.63 -9.1355,20.62995 s-3.94751,60.00348 -3.94751,60.00348 l26.0376,42.97724 l7.98163,-21.007 l-16.02361,-26.986 l12.97113,-33.01136 z" fill="#791a3d" id="svg_52" class="" fill-opacity="1"/><path d="M161.5,364.2283362597656 l-71.8968,-6.32585 s-7.1032,45.32585 -6.1032,63.32585 s2,46 2,46 l-8,122 l31,-4 l4,-101 l13,-55 l15,70 l10,90 l27,-3 l-9,-109 S176.5,379.22833625976557 161.5,364.2283362597656 z" fill="#2f2e41" id="svg_53"/><path d="M171.5,581.2283362597656 l9,3 s19,-5 14,8 s-19,11 -19,11 s-17,13 -24,3 l4,-21 z" fill="#2f2e41" id="svg_54"/><path d="M98.5,581.2283362597656 l9,3 s19,-5 14,8 s-19,11 -19,11 s-17,13 -24,3 l4,-21 z" fill="#2f2e41" id="svg_55"/><path d="M117,232.72833625976563 s-21,-15 -10,-33 c7.6311800000000005,-12.48738 23.44411,-11.49893 32.414,-9.72226 a15.154,15.154 0 0 1 11.086,8.72226 c1.5,3.5 1.5,7 -4.5,7 c-12,0 -6,9 -6,9 s-8,2 -6,9 S117,232.72833625976563 117,232.72833625976563 z" fill="#2f2e41" id="svg_56"/><path d="M835.82123,583.9530262597656 s-22.17658,1.7058900000000001 -19.90205,9.66671 s19.90205,6.82356 19.90205,6.82356 s13.647120000000001,-1.13726 21.03931,1.13726 s15.92165,0 16.49028,-3.98041 s-3.98041,-6.82356 -3.98041,-6.82356 l-2.84315,-5.6863 z" fill="#2f2e41" id="svg_57"/><path d="M777.53664,406.2561062597656 L775.26212,415.35416625976563 s-10.23534,21.03932 2.27452,21.03932 s7.96082,-19.33343 7.96082,-19.33343 l1.13726,-9.09808 z" fill="#9f616a" id="svg_58"/><path d="M887.28226,398.8639162597656 l2.27452,9.09808 s10.23534,21.03932 -2.27452,21.03932 s-7.96083,-19.33343 -7.96083,-19.33343 l-1.13726,-9.09808 z" fill="#9f616a" id="svg_59"/><circle cx="828.1447143554688" cy="219.7454376220703" r="24.451099395751953" fill="#9f616a" id="svg_60"/><path d="M820.75253,238.51021625976563 s2.84315,13.0785 1.13726,19.33343 s35.25507,-1.13726 35.25507,-1.13726 s-13.07849,-21.608 -12.50986,-22.17658 z" fill="#9f616a" id="svg_61"/><path d="M826.37618,252.9885462597656 s-10.23782,-2.8342 -13.64662,0.58056 s-23.30239,13.09889 -23.30239,13.09889 l13.72024,83.57665 l59.12607,-13.13022 l10.1662,-79.04851 s-16.13328,-9.4414 -18.8731,-7.5544 S826.37618,252.9885462597656 826.37618,252.9885462597656 z" fill="#791a3d" id="svg_62" class="" fill-opacity="1"/><path d="M793.97671,267.2326462597656 l-2.73053,-1.46134 s-10.34746,2.04141 -9.77187,10.00173 s2.88892,52.31146 2.88892,52.31146 l-9.028,80.18478 l16.49276,2.82872 l16.43157,-67.11275 z" fill="#791a3d" id="svg_63" class="" fill-opacity="1"/><path d="M870.73528,259.7733062597656 l2.728,-1.46611 s10.351,2.0233 9.78935,9.98461 s-2.79739,52.31644 -2.79739,52.31644 l9.16822,80.16886 l-16.48778,2.85757 l-16.549,-67.0839 z" fill="#791a3d" id="svg_64" class="" fill-opacity="1"/><path d="M803.69363,342.0009062597656 l-2.27452,34.68644 l-7.39219,69.37287 l10.804,143.86342 l37.52959,1.13726 L830.98787,454.02103625976565 l11.37261,-47.1963 l37.17363,-1.3768 s2.63047,-54.34895 -18.40884,-71.40785 z" fill="#2f2e41" id="svg_65"/><polygon points="844.635 398.864 838.664 524.247 836.674 587.649 870.223 591.061 878.688 404.602 865.674 391.472 844.635 398.864" fill="#2f2e41" id="svg_66"/><path d="M838.9487,187.3335062597656 s-22.17658,-2.84315 -28.43151,7.96082 c0,0 -1.7058900000000001,7.96083 -7.39219,10.804 s1.13726,12.50986 2.84315,15.353 s6.25493,19.33343 1.13726,23.31384 s9.09808,15.353 9.09808,15.353 s6.82356,9.09808 1.13726,15.92164 s7.39219,9.09808 7.39219,9.09808 s-2.84315,19.33343 2.27452,14.21576 c0,0 2.27452,43.78452 23.88247,16.49027 s30.706,-40.37274 21.60794,-51.17671 s-2.27452,-20.47068 -2.27452,-20.47068 s2.84315,-5.68631 -3.4117800000000003,-14.21576 S860.55664,187.3335062597656 838.9487,187.3335062597656 z" fill="#2f2e41" id="svg_67"/><path d="M806.82109,587.3648062597656 s-22.17657,1.7058900000000001 -19.90205,9.66671 s19.90205,6.82356 19.90205,6.82356 s13.64713,-1.13726 21.03932,1.13726 s15.92164,0 16.49027,-3.98041 s-3.98041,-6.82356 -3.98041,-6.82356 l-2.84315,-5.6863 z" fill="#2f2e41" id="svg_68"/><polygon points="555.214 119.691 522.749 100.132 532.23 136.83 537.945 123.46 547.477 136.242 550.304 134.134 540.772 121.352 555.214 119.691" fill="#791a3d" id="svg_69"/><polygon points="599.108 119.691 631.573 100.132 622.092 136.83 616.377 123.46 606.845 136.242 604.018 134.134 613.55 121.352 599.108 119.691" fill="#3f3d56" id="svg_70"/></g></svg>